<svg width="33" height="27" viewBox="0 0 33 27" fill="none" xmlns="http://www.w3.org/2000/svg">
<path d="M30.1877 0.238384C30.1877 0.238384 33.2402 -0.930326 32.9848 1.90775C32.9008 3.07646 32.1378 7.16732 31.5438 11.5914L29.5088 24.698C29.5088 24.698 29.3391 26.618 27.8124 26.9521C26.2866 27.2853 23.997 25.7834 23.5727 25.4493C23.2332 25.1986 17.213 21.4418 15.0932 19.6058C14.4992 19.1044 13.8203 18.1031 15.178 16.9343L24.0818 8.58598C25.0993 7.58312 26.1168 5.2457 21.8771 8.08455L10.0048 16.0148C10.0048 16.0148 8.64788 16.8503 6.1045 16.0989L0.59188 14.4288C0.59188 14.4288 -1.44314 13.1767 2.03368 11.9247C10.514 8.00124 20.9444 3.99445 30.1869 0.237612" fill="white"/>
</svg>
