<svg width="60" height="50" viewBox="0 0 60 50" fill="none" xmlns="http://www.w3.org/2000/svg">
<path d="M54.4287 0.437774C54.4287 0.437774 59.9325 -1.70848 59.4721 3.50344C59.3205 5.64969 57.9449 13.1623 56.8739 21.2869L53.2048 45.356C53.2048 45.356 52.8988 48.8821 50.1462 49.4955C47.395 50.1075 43.2668 47.3493 42.5018 46.7359C41.8898 46.2754 31.0353 39.3763 27.2132 36.0046C26.1422 35.0838 24.9182 33.2449 27.3662 31.0987L43.4198 15.7675C45.2544 13.9259 47.089 9.63336 39.4447 14.8467L18.0388 29.41C18.0388 29.41 15.5923 30.9443 11.0065 29.5644L1.06717 26.4974C1.06717 26.4974 -2.602 24.1981 3.66675 21.8989C18.9568 14.6937 37.7631 7.33552 54.4273 0.436358" fill="black"/>
</svg>
